#tb 0: 1/25
0,          0,          0,        1,  3110400, 0x26663e50
0,          1,          1,        1,  3110400, 0x64ae36c1
0,          2,          2,        1,  3110400, 0x5c72ac0b
0,          3,          3,        1,  3110400, 0x13617553
0,          4,          4,        1,  3110400, 0xee94be8a
0,          5,          5,        1,  3110400, 0x6324f8da
0,          6,          6,        1,  3110400, 0xea0dd277
0,          7,          7,        1,  3110400, 0xdf3e6b85
0,          8,          8,        1,  3110400, 0xdc754b17
0,          9,          9,        1,  3110400, 0xbb53a891
0,         10,         10,        1,  3110400, 0x53c6575a
0,         11,         11,        1,  3110400, 0xda720794
0,         12,         12,        1,  3110400, 0x21be3522
0,         13,         13,        1,  3110400, 0x7fd72aa9
0,         14,         14,        1,  3110400, 0xeb0d104a
0,         15,         15,        1,  3110400, 0xd038405a
0,         16,         16,        1,  3110400, 0xd1f8b9fa
0,         17,         17,        1,  3110400, 0xc96d2b8c
0,         18,         18,        1,  3110400, 0x07f77dcd
0,         19,         19,        1,  3110400, 0x673b444c
0,         20,         20,        1,  3110400, 0x5a8b4836
0,         21,         21,        1,  3110400, 0x1ce733d3
0,         22,         22,        1,  3110400, 0xd919ae60
0,         23,         23,        1,  3110400, 0x5dcc11c0
